<svg width="960" height="1180" viewBox="0 0 960 1180" xmlns="http://www.w3.org/2000/svg" style="background:#040A06; border-radius:8px;">
  <style>
    .grid-line { fill:none; stroke:#003B26; stroke-width:1.0; stroke-dasharray:3 3; opacity:0.50; }
    .axis-main-line { fill:none; stroke:#00838F; stroke-width:1.2; stroke-dasharray:4 4; opacity:0.60; }
    .axis-label { fill: #007A4D; font-family: monospace; font-size: 11px; font-weight: bold; }
    .origin-label { fill: #4DD0E1; font-family: monospace; font-size: 11px; font-weight: bold; }
    .path { fill:none; stroke:#00B8D4; stroke-width:1.6; stroke-dasharray:4 4; opacity:0.75; }
    .step-dot { fill:#00FFCC; stroke:#040A06; stroke-width:1.8; cursor:pointer; }
    .step-dot:hover { fill:#FFFFFF; stroke:#FF00AA; stroke-width:3.5; r:8.5; }
    .step-num { fill: #88C4A3; font-family: monospace; font-size: 12px; font-weight: bold; pointer-events:none; }
    .start-dot { fill:#00E676; stroke:#FFFFFF; stroke-width:2.5; cursor:pointer; }
    .start-text { fill:#00E676; font-family: monospace; font-size: 13px; font-weight: bold; pointer-events:none; }
    .alien-main { fill:#00FFCC; stroke:#FFFFFF; stroke-width:1; }
    .alien-wing { fill:#FF00AA; }
    .alien-eye { fill:#FFFF00; }
    .title-text { fill: #00C875; font-family: monospace; font-size: 17px; font-weight: bold; }
    .portrait-badge { fill: #4DD0E1; font-family: monospace; font-size: 13px; font-weight: bold; }
  </style>

  <!-- Title &amp; Cyan Origin Grid Header -->
  <text x="35" y="45" class="title-text">Cluster A Pattern 05 (ROM $1100, 43 Steps)</text>
  <text x="35" y="80" class="portrait-badge">📍 Optimal Range: Origin X=0 / Y=0 | Exact Range X:[+0,+40], Y:[+0,+46]</text>
  
  <!-- LAYER 1: Phoenix Screen Grid Overlay -->
  <line x1="101.2" y1="180" x2="101.2" y2="1135" class="axis-main-line" /><text x="87.2" y="165" class="origin-label">X=+0</text><line x1="257.7" y1="180" x2="257.7" y2="1135" class="grid-line" /><text x="243.7" y="165" class="axis-label">X=+8</text><line x1="414.2" y1="180" x2="414.2" y2="1135" class="grid-line" /><text x="400.2" y="165" class="axis-label">X=+16</text><line x1="570.8" y1="180" x2="570.8" y2="1135" class="grid-line" /><text x="556.8" y="165" class="axis-label">X=+24</text><line x1="727.3" y1="180" x2="727.3" y2="1135" class="grid-line" /><text x="713.3" y="165" class="axis-label">X=+32</text><line x1="883.8" y1="180" x2="883.8" y2="1135" class="grid-line" /><text x="869.8" y="165" class="axis-label">X=+40</text><line x1="70" y1="210.0" x2="915" y2="210.0" class="axis-main-line" /><text x="15" y="215.0" class="origin-label">Y=+0</text><line x1="70" y1="366.5" x2="915" y2="366.5" class="grid-line" /><text x="15" y="371.5" class="axis-label">Y=+8</text><line x1="70" y1="523.0" x2="915" y2="523.0" class="grid-line" /><text x="15" y="528.0" class="axis-label">Y=+16</text><line x1="70" y1="679.6" x2="915" y2="679.6" class="grid-line" /><text x="15" y="684.6" class="axis-label">Y=+24</text><line x1="70" y1="836.1" x2="915" y2="836.1" class="grid-line" /><text x="15" y="841.1" class="axis-label">Y=+32</text><line x1="70" y1="992.6" x2="915" y2="992.6" class="grid-line" /><text x="15" y="997.6" class="axis-label">Y=+40</text>
  
  <!-- LAYER 2: Prescribed Vector Path Line -->
  <path id="patPath" d="M 101.2,210.0 L 101.2,288.3 L 101.2,366.5 L 101.2,444.8 L 101.2,523.0 L 101.2,601.3 L 101.2,679.6 L 179.5,718.7 L 257.7,757.8 L 336.0,797.0 L 414.2,836.1 L 336.0,875.2 L 257.7,914.3 L 336.0,953.5 L 414.2,992.6 L 336.0,1031.7 L 414.2,1070.9 L 492.5,1070.9 L 570.8,1070.9 L 649.0,1070.9 L 727.3,1031.7 L 805.5,992.6 L 883.8,953.5 L 805.5,875.2 L 727.3,875.2 L 649.0,953.5 L 649.0,1031.7 L 727.3,1110.0 L 805.5,1110.0 L 883.8,1031.7 L 883.8,953.5 L 805.5,875.2 L 727.3,836.1 L 649.0,797.0 L 570.8,757.8 L 492.5,718.7 L 414.2,679.6 L 336.0,640.4 L 257.7,601.3 L 179.5,562.2 L 179.5,483.9 L 179.5,405.7 L 179.5,327.4 L 179.5,249.1" class="path" />
  
  <!-- LAYER 3: GLOWING GREEN PATH TRAIL (Renders EXACTLY on path_d and extends STRICTLY BEHIND the alien bug!) -->
  <path d="M 101.2,210.0 L 101.2,288.3 L 101.2,366.5 L 101.2,444.8 L 101.2,523.0 L 101.2,601.3 L 101.2,679.6 L 179.5,718.7 L 257.7,757.8 L 336.0,797.0 L 414.2,836.1 L 336.0,875.2 L 257.7,914.3 L 336.0,953.5 L 414.2,992.6 L 336.0,1031.7 L 414.2,1070.9 L 492.5,1070.9 L 570.8,1070.9 L 649.0,1070.9 L 727.3,1031.7 L 805.5,992.6 L 883.8,953.5 L 805.5,875.2 L 727.3,875.2 L 649.0,953.5 L 649.0,1031.7 L 727.3,1110.0 L 805.5,1110.0 L 883.8,1031.7 L 883.8,953.5 L 805.5,875.2 L 727.3,836.1 L 649.0,797.0 L 570.8,757.8 L 492.5,718.7 L 414.2,679.6 L 336.0,640.4 L 257.7,601.3 L 179.5,562.2 L 179.5,483.9 L 179.5,405.7 L 179.5,327.4 L 179.5,249.1" stroke="#00E676" stroke-width="4.5" stroke-linecap="round" stroke-linejoin="round" fill="none" opacity="0.90" style="filter:drop-shadow(0 0 6px #00FFCC); stroke-dasharray:130.0 3721.3;">
    <animate attributeName="stroke-dashoffset" values="130.0; -3591.3" dur="7.5s" repeatCount="indefinite" />
  </path>

  <!-- LAYER 4: Step Dots &amp; Numbers Along Trajectory -->
  <g class="step-group">
      <title>Step #0 | ROM Byte: 0x00 | Vector dX: +0, dY: +0 | Relative Position: (X=+0, Y=+0)</title>
      <circle cx="101.2" cy="210.0" r="8.5" class="start-dot" />
      <text x="113.2" y="201.0" class="start-text">#0</text>
    </g><g class="step-group">
      <title>Step #1 | ROM Byte: 0x0B | Vector dX: +0, dY: +4 | Relative Position: (X=+0, Y=+4)</title>
      <circle cx="101.2" cy="288.3" r="5.5" class="step-dot" />
      <text x="109.2" y="281.3" class="step-num">#1</text>
    </g><g class="step-group">
      <title>Step #2 | ROM Byte: 0x0C | Vector dX: +0, dY: +4 | Relative Position: (X=+0, Y=+8)</title>
      <circle cx="101.2" cy="366.5" r="5.5" class="step-dot" />
      <text x="109.2" y="359.5" class="step-num">#2</text>
    </g><g class="step-group">
      <title>Step #3 | ROM Byte: 0x0D | Vector dX: +0, dY: +4 | Relative Position: (X=+0, Y=+12)</title>
      <circle cx="101.2" cy="444.8" r="5.5" class="step-dot" />
      <text x="109.2" y="437.8" class="step-num">#3</text>
    </g><g class="step-group">
      <title>Step #4 | ROM Byte: 0x0E | Vector dX: +0, dY: +4 | Relative Position: (X=+0, Y=+16)</title>
      <circle cx="101.2" cy="523.0" r="5.5" class="step-dot" />
      <text x="109.2" y="516.0" class="step-num">#4</text>
    </g><g class="step-group">
      <title>Step #5 | ROM Byte: 0x0B | Vector dX: +0, dY: +4 | Relative Position: (X=+0, Y=+20)</title>
      <circle cx="101.2" cy="601.3" r="5.5" class="step-dot" />
      <text x="109.2" y="594.3" class="step-num">#5</text>
    </g><g class="step-group">
      <title>Step #6 | ROM Byte: 0x0C | Vector dX: +0, dY: +4 | Relative Position: (X=+0, Y=+24)</title>
      <circle cx="101.2" cy="679.6" r="5.5" class="step-dot" />
      <text x="109.2" y="672.6" class="step-num">#6</text>
    </g><g class="step-group">
      <title>Step #7 | ROM Byte: 0x09 | Vector dX: +4, dY: +2 | Relative Position: (X=+4, Y=+26)</title>
      <circle cx="179.5" cy="718.7" r="5.5" class="step-dot" />
      <text x="187.5" y="711.7" class="step-num">#7</text>
    </g><g class="step-group">
      <title>Step #8 | ROM Byte: 0x09 | Vector dX: +4, dY: +2 | Relative Position: (X=+8, Y=+28)</title>
      <circle cx="257.7" cy="757.8" r="5.5" class="step-dot" />
      <text x="265.7" y="750.8" class="step-num">#8</text>
    </g><g class="step-group">
      <title>Step #9 | ROM Byte: 0x09 | Vector dX: +4, dY: +2 | Relative Position: (X=+12, Y=+30)</title>
      <circle cx="336.0" cy="797.0" r="5.5" class="step-dot" />
      <text x="344.0" y="790.0" class="step-num">#9</text>
    </g><g class="step-group">
      <title>Step #10 | ROM Byte: 0x09 | Vector dX: +4, dY: +2 | Relative Position: (X=+16, Y=+32)</title>
      <circle cx="414.2" cy="836.1" r="5.5" class="step-dot" />
      <text x="422.2" y="829.1" class="step-num">#10</text>
    </g><g class="step-group">
      <title>Step #11 | ROM Byte: 0x0A | Vector dX: -4, dY: +2 | Relative Position: (X=+12, Y=+34)</title>
      <circle cx="336.0" cy="875.2" r="5.5" class="step-dot" />
      <text x="344.0" y="868.2" class="step-num">#11</text>
    </g><g class="step-group">
      <title>Step #12 | ROM Byte: 0x0A | Vector dX: -4, dY: +2 | Relative Position: (X=+8, Y=+36)</title>
      <circle cx="257.7" cy="914.3" r="5.5" class="step-dot" />
      <text x="265.7" y="907.3" class="step-num">#12</text>
    </g><g class="step-group">
      <title>Step #13 | ROM Byte: 0x09 | Vector dX: +4, dY: +2 | Relative Position: (X=+12, Y=+38)</title>
      <circle cx="336.0" cy="953.5" r="5.5" class="step-dot" />
      <text x="344.0" y="946.5" class="step-num">#13</text>
    </g><g class="step-group">
      <title>Step #14 | ROM Byte: 0x09 | Vector dX: +4, dY: +2 | Relative Position: (X=+16, Y=+40)</title>
      <circle cx="414.2" cy="992.6" r="5.5" class="step-dot" />
      <text x="422.2" y="985.6" class="step-num">#14</text>
    </g><g class="step-group">
      <title>Step #15 | ROM Byte: 0x0A | Vector dX: -4, dY: +2 | Relative Position: (X=+12, Y=+42)</title>
      <circle cx="336.0" cy="1031.7" r="5.5" class="step-dot" />
      <text x="344.0" y="1024.7" class="step-num">#15</text>
    </g><g class="step-group">
      <title>Step #16 | ROM Byte: 0x09 | Vector dX: +4, dY: +2 | Relative Position: (X=+16, Y=+44)</title>
      <circle cx="414.2" cy="1070.9" r="5.5" class="step-dot" />
      <text x="422.2" y="1063.9" class="step-num">#16</text>
    </g><g class="step-group">
      <title>Step #17 | ROM Byte: 0x16 | Vector dX: +4, dY: +0 | Relative Position: (X=+20, Y=+44)</title>
      <circle cx="492.5" cy="1070.9" r="5.5" class="step-dot" />
      <text x="500.5" y="1063.9" class="step-num">#17</text>
    </g><g class="step-group">
      <title>Step #18 | ROM Byte: 0x17 | Vector dX: +4, dY: +0 | Relative Position: (X=+24, Y=+44)</title>
      <circle cx="570.8" cy="1070.9" r="5.5" class="step-dot" />
      <text x="578.8" y="1063.9" class="step-num">#18</text>
    </g><g class="step-group">
      <title>Step #19 | ROM Byte: 0x14 | Vector dX: +4, dY: +0 | Relative Position: (X=+28, Y=+44)</title>
      <circle cx="649.0" cy="1070.9" r="5.5" class="step-dot" />
      <text x="657.0" y="1063.9" class="step-num">#19</text>
    </g><g class="step-group">
      <title>Step #20 | ROM Byte: 0x07 | Vector dX: +4, dY: -2 | Relative Position: (X=+32, Y=+42)</title>
      <circle cx="727.3" cy="1031.7" r="5.5" class="step-dot" />
      <text x="735.3" y="1024.7" class="step-num">#20</text>
    </g><g class="step-group">
      <title>Step #21 | ROM Byte: 0x07 | Vector dX: +4, dY: -2 | Relative Position: (X=+36, Y=+40)</title>
      <circle cx="805.5" cy="992.6" r="5.5" class="step-dot" />
      <text x="813.5" y="985.6" class="step-num">#21</text>
    </g><g class="step-group">
      <title>Step #22 | ROM Byte: 0x07 | Vector dX: +4, dY: -2 | Relative Position: (X=+40, Y=+38)</title>
      <circle cx="883.8" cy="953.5" r="5.5" class="step-dot" />
      <text x="891.8" y="946.5" class="step-num">#22</text>
    </g><g class="step-group">
      <title>Step #23 | ROM Byte: 0x1C | Vector dX: -4, dY: -4 | Relative Position: (X=+36, Y=+34)</title>
      <circle cx="805.5" cy="875.2" r="5.5" class="step-dot" />
      <text x="813.5" y="868.2" class="step-num">#23</text>
    </g><g class="step-group">
      <title>Step #24 | ROM Byte: 0x04 | Vector dX: -4, dY: +0 | Relative Position: (X=+32, Y=+34)</title>
      <circle cx="727.3" cy="875.2" r="5.5" class="step-dot" />
      <text x="735.3" y="868.2" class="step-num">#24</text>
    </g><g class="step-group">
      <title>Step #25 | ROM Byte: 0x1D | Vector dX: -4, dY: +4 | Relative Position: (X=+28, Y=+38)</title>
      <circle cx="649.0" cy="953.5" r="5.5" class="step-dot" />
      <text x="657.0" y="946.5" class="step-num">#25</text>
    </g><g class="step-group">
      <title>Step #26 | ROM Byte: 0x06 | Vector dX: +0, dY: +4 | Relative Position: (X=+28, Y=+42)</title>
      <circle cx="649.0" cy="1031.7" r="5.5" class="step-dot" />
      <text x="657.0" y="1024.7" class="step-num">#26</text>
    </g><g class="step-group">
      <title>Step #27 | ROM Byte: 0x1E | Vector dX: +4, dY: +4 | Relative Position: (X=+32, Y=+46)</title>
      <circle cx="727.3" cy="1110.0" r="5.5" class="step-dot" />
      <text x="735.3" y="1103.0" class="step-num">#27</text>
    </g><g class="step-group">
      <title>Step #28 | ROM Byte: 0x03 | Vector dX: +4, dY: +0 | Relative Position: (X=+36, Y=+46)</title>
      <circle cx="805.5" cy="1110.0" r="5.5" class="step-dot" />
      <text x="813.5" y="1103.0" class="step-num">#28</text>
    </g><g class="step-group">
      <title>Step #29 | ROM Byte: 0x1F | Vector dX: +4, dY: -4 | Relative Position: (X=+40, Y=+42)</title>
      <circle cx="883.8" cy="1031.7" r="5.5" class="step-dot" />
      <text x="891.8" y="1024.7" class="step-num">#29</text>
    </g><g class="step-group">
      <title>Step #30 | ROM Byte: 0x05 | Vector dX: +0, dY: -4 | Relative Position: (X=+40, Y=+38)</title>
      <circle cx="883.8" cy="953.5" r="5.5" class="step-dot" />
      <text x="891.8" y="946.5" class="step-num">#30</text>
    </g><g class="step-group">
      <title>Step #31 | ROM Byte: 0x1C | Vector dX: -4, dY: -4 | Relative Position: (X=+36, Y=+34)</title>
      <circle cx="805.5" cy="875.2" r="5.5" class="step-dot" />
      <text x="813.5" y="868.2" class="step-num">#31</text>
    </g><g class="step-group">
      <title>Step #32 | ROM Byte: 0x08 | Vector dX: -4, dY: -2 | Relative Position: (X=+32, Y=+32)</title>
      <circle cx="727.3" cy="836.1" r="5.5" class="step-dot" />
      <text x="735.3" y="829.1" class="step-num">#32</text>
    </g><g class="step-group">
      <title>Step #33 | ROM Byte: 0x08 | Vector dX: -4, dY: -2 | Relative Position: (X=+28, Y=+30)</title>
      <circle cx="649.0" cy="797.0" r="5.5" class="step-dot" />
      <text x="657.0" y="790.0" class="step-num">#33</text>
    </g><g class="step-group">
      <title>Step #34 | ROM Byte: 0x08 | Vector dX: -4, dY: -2 | Relative Position: (X=+24, Y=+28)</title>
      <circle cx="570.8" cy="757.8" r="5.5" class="step-dot" />
      <text x="578.8" y="750.8" class="step-num">#34</text>
    </g><g class="step-group">
      <title>Step #35 | ROM Byte: 0x08 | Vector dX: -4, dY: -2 | Relative Position: (X=+20, Y=+26)</title>
      <circle cx="492.5" cy="718.7" r="5.5" class="step-dot" />
      <text x="500.5" y="711.7" class="step-num">#35</text>
    </g><g class="step-group">
      <title>Step #36 | ROM Byte: 0x08 | Vector dX: -4, dY: -2 | Relative Position: (X=+16, Y=+24)</title>
      <circle cx="414.2" cy="679.6" r="5.5" class="step-dot" />
      <text x="422.2" y="672.6" class="step-num">#36</text>
    </g><g class="step-group">
      <title>Step #37 | ROM Byte: 0x08 | Vector dX: -4, dY: -2 | Relative Position: (X=+12, Y=+22)</title>
      <circle cx="336.0" cy="640.4" r="5.5" class="step-dot" />
      <text x="344.0" y="633.4" class="step-num">#37</text>
    </g><g class="step-group">
      <title>Step #38 | ROM Byte: 0x08 | Vector dX: -4, dY: -2 | Relative Position: (X=+8, Y=+20)</title>
      <circle cx="257.7" cy="601.3" r="5.5" class="step-dot" />
      <text x="265.7" y="594.3" class="step-num">#38</text>
    </g><g class="step-group">
      <title>Step #39 | ROM Byte: 0x08 | Vector dX: -4, dY: -2 | Relative Position: (X=+4, Y=+18)</title>
      <circle cx="179.5" cy="562.2" r="5.5" class="step-dot" />
      <text x="187.5" y="555.2" class="step-num">#39</text>
    </g><g class="step-group">
      <title>Step #40 | ROM Byte: 0x05 | Vector dX: +0, dY: -4 | Relative Position: (X=+4, Y=+14)</title>
      <circle cx="179.5" cy="483.9" r="5.5" class="step-dot" />
      <text x="187.5" y="476.9" class="step-num">#40</text>
    </g><g class="step-group">
      <title>Step #41 | ROM Byte: 0x05 | Vector dX: +0, dY: -4 | Relative Position: (X=+4, Y=+10)</title>
      <circle cx="179.5" cy="405.7" r="5.5" class="step-dot" />
      <text x="187.5" y="398.7" class="step-num">#41</text>
    </g><g class="step-group">
      <title>Step #42 | ROM Byte: 0x05 | Vector dX: +0, dY: -4 | Relative Position: (X=+4, Y=+6)</title>
      <circle cx="179.5" cy="327.4" r="5.5" class="step-dot" />
      <text x="187.5" y="320.4" class="step-num">#42</text>
    </g><g class="step-group">
      <title>Step #43 | ROM Byte: 0x05 | Vector dX: +0, dY: -4 | Relative Position: (X=+4, Y=+2)</title>
      <circle cx="179.5" cy="249.1" r="5.5" class="step-dot" />
      <text x="187.5" y="242.1" class="step-num">#43</text>
    </g>
  
  <!-- LAYER 5: Authentic 8-Bit Phoenix Alien Bug Moving Sprite -->
  <g>
    <animateMotion path="M 101.2,210.0 L 101.2,288.3 L 101.2,366.5 L 101.2,444.8 L 101.2,523.0 L 101.2,601.3 L 101.2,679.6 L 179.5,718.7 L 257.7,757.8 L 336.0,797.0 L 414.2,836.1 L 336.0,875.2 L 257.7,914.3 L 336.0,953.5 L 414.2,992.6 L 336.0,1031.7 L 414.2,1070.9 L 492.5,1070.9 L 570.8,1070.9 L 649.0,1070.9 L 727.3,1031.7 L 805.5,992.6 L 883.8,953.5 L 805.5,875.2 L 727.3,875.2 L 649.0,953.5 L 649.0,1031.7 L 727.3,1110.0 L 805.5,1110.0 L 883.8,1031.7 L 883.8,953.5 L 805.5,875.2 L 727.3,836.1 L 649.0,797.0 L 570.8,757.8 L 492.5,718.7 L 414.2,679.6 L 336.0,640.4 L 257.7,601.3 L 179.5,562.2 L 179.5,483.9 L 179.5,405.7 L 179.5,327.4 L 179.5,249.1" dur="7.5s" begin="0s" repeatCount="indefinite" rotate="auto" />
    
    <!-- Authentic Phoenix Alien Bug Sprite (Positioned facing forward at origin x=0, y=0) -->
    <g transform="translate(-10, -10) scale(0.9)">
      <path d="M 6,2 L 4,0 L 2,2 M 18,2 L 20,0 L 22,2" stroke="#00FFCC" stroke-width="1.5" fill="none" />
      <path d="M 4,4 L 20,4 L 22,10 L 18,18 L 12,20 L 6,18 L 2,10 Z" class="alien-main" />
      <path d="M 0,8 L 4,4 L 4,14 L 0,16 Z M 24,8 L 20,4 L 20,14 L 24,16 Z" class="alien-wing" />
      <circle cx="8" cy="9" r="2" class="alien-eye" />
      <circle cx="16" cy="9" r="2" class="alien-eye" />
    </g>
  </g>
</svg>